<svg id="visual" viewBox="0 0 900 450" width="900" height="450" xmlns="http://www.w3.org/2000/svg" xmlns:xlink="http://www.w3.org/1999/xlink" version="1.1"><rect x="0" y="0" width="900" height="450" fill="#002233"></rect><path d="M0 82L12.5 74C25 66 50 50 75 50.5C100 51 125 68 150 76C175 84 200 83 225 73.7C250 64.3 275 46.7 300 50C325 53.3 350 77.7 375 84.7C400 91.7 425 81.3 450 71.5C475 61.7 500 52.3 525 46.7C550 41 575 39 600 47.8C625 56.7 650 76.3 675 82.2C700 88 725 80 750 71.7C775 63.3 800 54.7 825 52.7C850 50.7 875 55.3 887.5 57.7L900 60L900 0L887.5 0C875 0 850 0 825 0C800 0 775 0 750 0C725 0 700 0 675 0C650 0 625 0 600 0C575 0 550 0 525 0C500 0 475 0 450 0C425 0 400 0 375 0C350 0 325 0 300 0C275 0 250 0 225 0C200 0 175 0 150 0C125 0 100 0 75 0C50 0 25 0 12.5 0L0 0Z" fill="#4FACF7" stroke-linecap="round" stroke-linejoin="miter"></path></svg>